<svg id="Layer_1" data-name="Layer 1" xmlns="http://www.w3.org/2000/svg" viewBox="0 0 25.35 25.12">
    <defs>
        <style>
            .cls-1 {
                fill: #fff;
            }
        </style>
    </defs>
    <path class="cls-1" d="M293.75-234.89a9.77,9.77,0,0,0-11.76,7.2l1.06-4.42a5.22,5.22,0,0,1,6.27-3.85l4.43,1.07"
        transform="translate(-280.07 236.1)" >
    <path class="cls-1" d="M297-234.11a9.76,9.76,0,0,1,7.2,11.76l1.07-4.43a5.21,5.21,0,0,0-3.85-6.27Z"
        transform="translate(-280.07 236.1)" >
    <path class="cls-1" d="M291.74-212.19a9.76,9.76,0,0,0,11.76-7.2L302.44-215a5.21,5.21,0,0,1-6.27,3.85l-4.43-1.07"
        transform="translate(-280.07 236.1)" >
    <path class="cls-1" d="M288.48-213a9.79,9.79,0,0,1-7.2-11.76l-1.06,4.42a5.21,5.21,0,0,0,3.84,6.27l4.42,1.07"
        transform="translate(-280.07 236.1)" >
    <path class="cls-1"
        d="M297.57-223.78a3.15,3.15,0,0,1-3.16-3.15,3.15,3.15,0,0,1,3.16-3.15,3.15,3.15,0,0,1,3.15,3.15A3.15,3.15,0,0,1,297.57-223.78Zm-1.69,8.39a3.15,3.15,0,0,1-3.15-3.15,3.15,3.15,0,0,1,3.15-3.15,3.15,3.15,0,0,1,3.16,3.15A3.15,3.15,0,0,1,295.88-215.39Zm-4.6-8a1.39,1.39,0,0,1,1.39-1.39,1.38,1.38,0,0,1,1.38,1.39,1.38,1.38,0,0,1-1.38,1.38A1.38,1.38,0,0,1,291.28-223.43Zm-3.37,6.48a3.15,3.15,0,0,1-3.15-3.15,3.15,3.15,0,0,1,3.15-3.16,3.15,3.15,0,0,1,3.15,3.16A3.15,3.15,0,0,1,287.91-216.95Zm1.68-14.7a3.16,3.16,0,0,1,3.16,3.16,3.16,3.16,0,0,1-3.16,3.15,3.15,3.15,0,0,1-3.15-3.15A3.15,3.15,0,0,1,289.59-231.65Zm3.16-3a11.15,11.15,0,0,0-11.15,11.15,11.15,11.15,0,0,0,11.15,11.14,11.14,11.14,0,0,0,11.14-11.14A11.15,11.15,0,0,0,292.75-234.69Z"
        transform="translate(-280.07 236.1)" >
</svg>