<svg id="Layer_1" data-name="Layer 1" xmlns="http://www.w3.org/2000/svg" xmlns:xlink="http://www.w3.org/1999/xlink"
    viewBox="0 0 21.05 21.06">
    <defs>
        <style>
            .cls-1 {
                fill: none;
            }

            .cls-2 {
                clip-path: url(#clip-path);
            }

            .cls-3 {
                fill: #fff;
            }
        </style>
        <clipPath id="clip-path" transform="translate(-406.75 234.07)">
            <rect class="cls-1" x="406.75" y="-234.07" width="21.05" height="21.06" />
        </clipPath>
    </defs>
    <g class="cls-2">
        <path class="cls-3"
            d="M427.75-227.88a7.45,7.45,0,0,0-.49-2.55,5.38,5.38,0,0,0-1.21-1.87,5.38,5.38,0,0,0-1.87-1.21,7.45,7.45,0,0,0-2.55-.49c-1.13-.06-1.49-.07-4.35-.07s-3.21,0-4.34.06a8,8,0,0,0-2.55.49,5.27,5.27,0,0,0-1.87,1.22,5.37,5.37,0,0,0-1.22,1.86,7.74,7.74,0,0,0-.48,2.56c-.05,1.13-.07,1.48-.07,4.34s0,3.22.06,4.34a8,8,0,0,0,.49,2.56,5.37,5.37,0,0,0,1.22,1.86,5.46,5.46,0,0,0,1.86,1.22,7.75,7.75,0,0,0,2.56.49c1.12,0,1.48.06,4.34.06s3.22,0,4.34-.06a7.65,7.65,0,0,0,2.55-.49,5.38,5.38,0,0,0,1.87-1.21,5.38,5.38,0,0,0,1.21-1.87,7.45,7.45,0,0,0,.49-2.55c.05-1.13.07-1.48.07-4.34S427.8-226.75,427.75-227.88Zm-1.9,8.6a5.71,5.71,0,0,1-.36,2,3.43,3.43,0,0,1-.79,1.21,3.52,3.52,0,0,1-1.21.79,5.9,5.9,0,0,1-1.95.36c-1.11.05-1.45.06-4.26.06s-3.14,0-4.25-.06a5.86,5.86,0,0,1-1.95-.36,3.26,3.26,0,0,1-1.21-.79,3.26,3.26,0,0,1-.79-1.21,5.9,5.9,0,0,1-.36-2c-.05-1.11-.06-1.45-.06-4.26s0-3.14.06-4.25a5.86,5.86,0,0,1,.36-1.95,3.18,3.18,0,0,1,.79-1.21,3.26,3.26,0,0,1,1.21-.79,6,6,0,0,1,1.95-.36c1.11,0,1.45-.06,4.26-.06s3.14,0,4.25.06a5.86,5.86,0,0,1,1.95.36,3.26,3.26,0,0,1,1.21.79,3.26,3.26,0,0,1,.79,1.21,5.86,5.86,0,0,1,.36,1.95c0,1.11.06,1.44.06,4.25s0,3.14-.05,4.25Z"
            transform="translate(-406.75 234.07)" />
        <path class="cls-3"
            d="M417.28-228.95a5.43,5.43,0,0,0-3,.91,5.43,5.43,0,0,0-2,2.43,5.41,5.41,0,0,0-.31,3.13,5.4,5.4,0,0,0,1.48,2.77,5.48,5.48,0,0,0,2.77,1.48,5.37,5.37,0,0,0,3.12-.31,5.38,5.38,0,0,0,2.43-2,5.38,5.38,0,0,0,.91-3,5.41,5.41,0,0,0-1.58-3.82A5.4,5.4,0,0,0,417.28-228.95Zm0,8.92a3.57,3.57,0,0,1-1.95-.59A3.57,3.57,0,0,1,414-222.2a3.58,3.58,0,0,1-.2-2,3.56,3.56,0,0,1,1-1.8,3.56,3.56,0,0,1,1.8-1,3.44,3.44,0,0,1,2,.2,3.48,3.48,0,0,1,1.57,1.29,3.49,3.49,0,0,1,.59,2,3.5,3.5,0,0,1-1,2.48A3.49,3.49,0,0,1,417.28-220Z"
            transform="translate(-406.75 234.07)" />
        <path class="cls-3"
            d="M424.17-229.16a1.25,1.25,0,0,1-.21.7,1.31,1.31,0,0,1-.57.47,1.3,1.3,0,0,1-.73.07,1.3,1.3,0,0,1-.65-.35,1.29,1.29,0,0,1-.34-.64,1.21,1.21,0,0,1,.07-.73,1.25,1.25,0,0,1,.47-.57,1.23,1.23,0,0,1,.7-.21,1.26,1.26,0,0,1,.89.37A1.22,1.22,0,0,1,424.17-229.16Z"
            transform="translate(-406.75 234.07)" />
    </g>
</svg>