<svg width="1335" height="1080" viewBox="0 0 1335 1080" fill="none" xmlns="http://www.w3.org/2000/svg">
    <mask id="mask0_665_53" style="mask-type:alpha" maskUnits="userSpaceOnUse" x="0" y="0" width="1335" height="1080">
        <rect width="1335" height="1080" fill="#D9D9D9" />
    </mask>
    <g mask="url(#mask0_665_53)">
        <path fill-rule="evenodd" clip-rule="evenodd"
            d="M675.357 146.252C944.76 186.637 1151.01 418.714 1151.01 699.14C1151.01 914.436 1029.25 1101.29 850.597 1194.86C845.192 1191.45 838.649 1190.31 832.106 1191.73L827.27 1192.87C824.709 1193.44 822.149 1194.58 819.873 1195.72L817.313 1196.57C814.468 1197.42 811.908 1198.84 809.632 1200.55L807.925 1201.97C806.218 1202.83 804.511 1203.39 802.804 1204.25L799.391 1206.24C796.83 1207.38 794.27 1208.23 791.994 1209.65L790.003 1210.79C789.434 1211.07 788.58 1211.36 788.011 1211.64C787.158 1211.93 786.305 1212.21 785.451 1212.78C784.882 1213.06 784.598 1213.06 784.029 1213.35C781.468 1212.5 778.908 1212.21 776.348 1212.21H772.081C768.667 1212.21 766.106 1212.78 763.262 1213.92C760.701 1213.92 758.425 1213.92 755.865 1214.77L749.891 1216.19L741.641 1217.33C737.943 1217.61 734.245 1217.9 730.546 1218.47H729.693C727.986 1218.47 726.279 1218.75 724.572 1219.04C724.003 1219.04 723.719 1219.04 723.15 1219.04L717.176 1219.61C715.469 1219.89 714.046 1220.17 712.624 1220.46L706.934 1220.74C704.374 1220.74 701.814 1221.03 699.253 1221.88C695.271 1222.17 691.288 1223.59 688.159 1225.58C673.081 1225.86 661.987 1239.51 664.547 1254.3C640.935 1257.43 617.039 1258.85 592.573 1258.85C592.004 1258.85 591.435 1258.85 590.582 1258.85C586.884 1250.04 578.065 1244.06 567.823 1244.06H552.462C549.617 1244.06 546.487 1244.63 543.927 1245.77H542.22C541.936 1245.77 541.936 1245.77 541.936 1245.77L540.229 1244.92C537.953 1243.78 535.108 1242.93 532.548 1242.36C530.557 1241.51 528.281 1240.65 526.005 1240.37C523.729 1240.08 521.738 1239.51 519.462 1239.23C518.608 1239.23 517.755 1238.95 516.901 1238.95C515.195 1238.09 513.203 1237.52 511.496 1237.24L508.652 1236.67C507.229 1236.39 506.091 1236.39 504.669 1236.1C503.246 1235.82 501.824 1235.25 500.402 1234.96L498.126 1234.39C496.419 1234.11 494.712 1233.83 493.005 1233.83H491.298C489.876 1233.54 488.453 1233.26 487.031 1233.26C486.462 1233.26 486.178 1232.97 485.609 1232.97L482.479 1231.84C479.919 1230.98 477.074 1230.41 474.229 1230.41C473.66 1230.13 473.091 1230.13 472.522 1229.84C471.1 1229.28 469.678 1228.71 468.255 1228.42C466.264 1227.57 464.273 1226.72 461.997 1226.43C460.574 1225.86 458.867 1225.29 457.445 1225.01C454.885 1223.02 451.755 1221.31 448.626 1220.46L450.049 1221.31C447.773 1219.89 445.497 1218.75 442.652 1218.18C442.083 1217.9 441.514 1217.9 440.945 1217.61C440.092 1217.33 439.238 1216.76 438.385 1216.48C436.962 1215.34 435.54 1214.49 433.833 1213.63L433.549 1213.35L433.264 1213.06C428.997 1210.22 424.161 1208.8 419.325 1208.8H417.902C408.23 1208.8 399.98 1214.2 395.997 1222.17C183.49 1142.25 33 938.327 33 699.14C33 591.634 63.4394 491.238 116.068 406.2C83.0686 356.713 63.7239 297.272 63.7239 233.28C63.7239 60.9293 203.404 -78.7148 375.799 -78.7148C517.755 -78.7148 637.806 16.2773 675.357 146.252Z"
            fill="#6DA2D6" fill-opacity="0.16" />
        <path fill-rule="evenodd" clip-rule="evenodd"
            d="M859.357 146.252C1128.76 186.637 1335.01 418.714 1335.01 699.14C1335.01 914.436 1213.25 1101.29 1034.6 1194.86C1029.19 1191.45 1022.65 1190.31 1016.11 1191.73L1011.27 1192.87C1008.71 1193.44 1006.15 1194.58 1003.87 1195.72L1001.31 1196.57C998.468 1197.42 995.908 1198.84 993.632 1200.55L991.925 1201.97C990.218 1202.83 988.511 1203.39 986.804 1204.25L983.391 1206.24C980.83 1207.38 978.27 1208.23 975.994 1209.65L974.003 1210.79C973.434 1211.07 972.58 1211.36 972.011 1211.64C971.158 1211.93 970.305 1212.21 969.451 1212.78C968.882 1213.06 968.598 1213.06 968.029 1213.35C965.468 1212.5 962.908 1212.21 960.348 1212.21H956.081C952.667 1212.21 950.106 1212.78 947.262 1213.92C944.701 1213.92 942.425 1213.92 939.865 1214.77L933.891 1216.19L925.641 1217.33C921.943 1217.61 918.245 1217.9 914.546 1218.47H913.693C911.986 1218.47 910.279 1218.75 908.572 1219.04C908.003 1219.04 907.719 1219.04 907.15 1219.04L901.176 1219.61C899.469 1219.89 898.046 1220.17 896.624 1220.46L890.934 1220.74C888.374 1220.74 885.814 1221.03 883.253 1221.88C879.271 1222.17 875.288 1223.59 872.159 1225.58C857.081 1225.86 845.987 1239.51 848.547 1254.3C824.935 1257.43 801.039 1258.85 776.573 1258.85C776.004 1258.85 775.435 1258.85 774.582 1258.85C770.884 1250.04 762.065 1244.06 751.823 1244.06H736.462C733.617 1244.06 730.487 1244.63 727.927 1245.77H726.22C725.936 1245.77 725.936 1245.77 725.936 1245.77L724.229 1244.92C721.953 1243.78 719.108 1242.93 716.548 1242.36C714.557 1241.51 712.281 1240.65 710.005 1240.37C707.729 1240.08 705.738 1239.51 703.462 1239.23C702.608 1239.23 701.755 1238.95 700.901 1238.95C699.195 1238.09 697.203 1237.52 695.496 1237.24L692.652 1236.67C691.229 1236.39 690.091 1236.39 688.669 1236.1C687.246 1235.82 685.824 1235.25 684.402 1234.96L682.126 1234.39C680.419 1234.11 678.712 1233.83 677.005 1233.83H675.298C673.876 1233.54 672.453 1233.26 671.031 1233.26C670.462 1233.26 670.178 1232.97 669.609 1232.97L666.479 1231.84C663.919 1230.98 661.074 1230.41 658.229 1230.41C657.66 1230.13 657.091 1230.13 656.522 1229.84C655.1 1229.28 653.678 1228.71 652.255 1228.42C650.264 1227.57 648.273 1226.72 645.997 1226.43C644.574 1225.86 642.867 1225.29 641.445 1225.01C638.885 1223.02 635.755 1221.31 632.626 1220.46L634.049 1221.31C631.773 1219.89 629.497 1218.75 626.652 1218.18C626.083 1217.9 625.514 1217.9 624.945 1217.61C624.092 1217.33 623.238 1216.76 622.385 1216.48C620.962 1215.34 619.54 1214.49 617.833 1213.63L617.549 1213.35L617.264 1213.06C612.997 1210.22 608.161 1208.8 603.325 1208.8H601.902C592.23 1208.8 583.98 1214.2 579.997 1222.17C367.49 1142.25 217 938.327 217 699.14C217 591.634 247.439 491.238 300.068 406.2C267.069 356.713 247.724 297.272 247.724 233.28C247.724 60.9293 387.404 -78.7148 559.799 -78.7148C701.755 -78.7148 821.806 16.2773 859.357 146.252Z"
            fill="#6DA2D6" fill-opacity="0.05" />
        <g clip-path="url(#clip0_665_53)">
            <path fill-rule="evenodd" clip-rule="evenodd"
                d="M470.064 145.966C739.183 186.352 945.716 418.429 945.716 698.57C945.716 913.867 823.958 1100.72 645.304 1194.29C639.899 1190.88 633.356 1189.74 626.813 1191.16L621.977 1192.3C619.416 1192.87 616.856 1194.01 614.58 1195.15L612.02 1196C609.175 1196.85 606.615 1198.27 604.339 1199.98L602.632 1201.4C600.925 1202.26 599.218 1202.83 597.511 1203.68L594.098 1205.67C591.537 1206.81 588.977 1207.66 586.701 1209.08L584.71 1210.22C584.141 1210.5 583.287 1210.79 582.718 1211.07C581.865 1211.36 581.012 1211.64 580.158 1212.21C579.589 1212.49 579.305 1212.49 578.736 1212.78C576.175 1211.93 573.615 1211.64 571.055 1211.64H566.788C563.374 1211.64 560.813 1212.21 557.969 1213.35C555.408 1213.35 553.132 1213.35 550.572 1214.2L544.598 1215.62L536.348 1216.76C532.65 1217.05 528.952 1217.33 525.253 1217.9H524.4C522.693 1217.9 520.986 1218.18 519.279 1218.47C518.71 1218.47 518.426 1218.47 517.857 1218.47L511.883 1219.04C510.176 1219.32 508.753 1219.61 507.331 1219.89L501.641 1220.17C499.081 1220.17 496.521 1220.46 493.961 1221.31C489.978 1221.6 485.995 1223.02 482.866 1225.01C467.788 1225.29 456.694 1238.94 459.254 1253.73C435.642 1256.86 411.746 1258.28 387.28 1258.28C386.711 1258.28 386.142 1258.28 385.289 1258.28C381.591 1249.47 372.772 1243.5 362.531 1243.5H347.169C344.324 1243.5 341.194 1244.06 338.634 1245.2H336.927C336.643 1245.2 336.643 1245.2 336.643 1245.2L334.936 1244.35C332.66 1243.21 329.815 1242.36 327.255 1241.79C325.264 1240.94 322.988 1240.08 320.712 1239.8C318.436 1239.51 316.445 1238.94 314.169 1238.66C313.315 1238.66 312.462 1238.38 311.608 1238.38C309.902 1237.52 307.91 1236.95 306.203 1236.67L303.359 1236.1C301.936 1235.82 300.798 1235.82 299.376 1235.53C297.953 1235.25 296.531 1234.68 295.109 1234.39L292.833 1233.83C291.126 1233.54 289.419 1233.26 287.712 1233.26H286.005C284.583 1232.97 283.16 1232.69 281.738 1232.69C281.169 1232.69 280.885 1232.4 280.316 1232.4L277.186 1231.27C274.626 1230.41 271.781 1229.84 268.936 1229.84C268.367 1229.56 267.798 1229.56 267.23 1229.27C265.807 1228.71 264.385 1228.14 262.962 1227.85C260.971 1227 258.98 1226.15 256.704 1225.86C255.281 1225.29 253.574 1224.72 252.152 1224.44C249.592 1222.45 246.462 1220.74 243.333 1219.89L244.756 1220.74C242.48 1219.32 239.919 1218.18 237.359 1217.61C236.79 1217.33 236.221 1217.33 235.652 1217.05C234.799 1216.76 233.945 1216.19 233.092 1215.91C231.669 1214.77 230.247 1213.92 228.54 1213.06L228.256 1212.78L227.118 1212.21C222.851 1209.37 218.014 1207.94 213.178 1207.94H211.756C202.083 1207.94 193.834 1213.35 189.851 1221.31C-21.5183 1141.96 -172.293 938.042 -172.293 698.855C-172.293 591.349 -141.854 490.953 -89.2246 405.915C-122.224 356.428 -141.569 296.987 -141.569 232.995C-141.569 60.6441 -1.8891 -79 170.506 -79C312.746 -79 432.513 15.9921 470.064 145.966Z"
                fill="#F5FAFF" />
            <path fill-rule="evenodd" clip-rule="evenodd"
                d="M468.357 146.252C737.76 186.637 944.009 418.714 944.009 699.14C944.009 914.436 822.251 1101.29 643.597 1194.86C638.192 1191.45 631.649 1190.31 625.106 1191.73L620.27 1192.87C617.709 1193.44 615.149 1194.58 612.873 1195.72L610.313 1196.57C607.468 1197.42 604.908 1198.84 602.632 1200.55L600.925 1201.97C599.218 1202.83 597.511 1203.39 595.804 1204.25L592.391 1206.24C589.83 1207.38 587.27 1208.23 584.994 1209.65L583.003 1210.79C582.434 1211.07 581.58 1211.36 581.011 1211.64C580.158 1211.93 579.305 1212.21 578.451 1212.78C577.882 1213.06 577.598 1213.06 577.029 1213.35C574.468 1212.5 571.908 1212.21 569.348 1212.21H565.081C561.667 1212.21 559.106 1212.78 556.262 1213.92C553.701 1213.92 551.425 1213.92 548.865 1214.77L542.891 1216.19L534.641 1217.33C530.943 1217.61 527.245 1217.9 523.546 1218.47H522.693C520.986 1218.47 519.279 1218.75 517.572 1219.04C517.003 1219.04 516.719 1219.04 516.15 1219.04L510.176 1219.61C508.469 1219.89 507.047 1220.17 505.624 1220.46L499.934 1220.74C497.374 1220.74 494.814 1221.03 492.253 1221.88C488.271 1222.17 484.288 1223.59 481.159 1225.58C466.081 1225.86 454.987 1239.51 457.547 1254.3C433.935 1257.43 410.039 1258.85 385.573 1258.85C385.004 1258.85 384.435 1258.85 383.582 1258.85C379.884 1250.04 371.065 1244.06 360.823 1244.06H345.462C342.617 1244.06 339.487 1244.63 336.927 1245.77H335.22C334.936 1245.77 334.936 1245.77 334.936 1245.77L333.229 1244.92C330.953 1243.78 328.108 1242.93 325.548 1242.36C323.557 1241.51 321.281 1240.65 319.005 1240.37C316.729 1240.08 314.738 1239.51 312.462 1239.23C311.608 1239.23 310.755 1238.95 309.901 1238.95C308.195 1238.09 306.203 1237.52 304.496 1237.24L301.652 1236.67C300.229 1236.39 299.091 1236.39 297.669 1236.1C296.246 1235.82 294.824 1235.25 293.402 1234.96L291.126 1234.39C289.419 1234.11 287.712 1233.83 286.005 1233.83H284.298C282.876 1233.54 281.453 1233.26 280.031 1233.26C279.462 1233.26 279.178 1232.97 278.609 1232.97L275.479 1231.84C272.919 1230.98 270.074 1230.41 267.229 1230.41C266.66 1230.13 266.091 1230.13 265.522 1229.84C264.1 1229.28 262.678 1228.71 261.255 1228.42C259.264 1227.57 257.273 1226.72 254.997 1226.43C253.574 1225.86 251.867 1225.29 250.445 1225.01C247.885 1223.02 244.755 1221.31 241.626 1220.46L243.049 1221.31C240.773 1219.89 238.497 1218.75 235.652 1218.18C235.083 1217.9 234.514 1217.9 233.945 1217.61C233.092 1217.33 232.238 1216.76 231.385 1216.48C229.962 1215.34 228.54 1214.49 226.833 1213.63L226.549 1213.35L226.264 1213.06C221.997 1210.22 217.161 1208.8 212.325 1208.8H210.902C201.23 1208.8 192.98 1214.2 188.997 1222.17C-23.5098 1142.25 -174 938.327 -174 699.14C-174 591.634 -143.561 491.238 -90.9317 406.2C-123.931 356.713 -143.276 297.272 -143.276 233.28C-143.276 60.9293 -3.59612 -78.7148 168.799 -78.7148C310.755 -78.7148 430.806 16.2773 468.357 146.252Z"
                fill="#6DA2D6" />
            <path fill-rule="evenodd" clip-rule="evenodd"
                d="M895.647 930.93C843.871 1044.12 755.398 1137.13 645.588 1194.58C640.183 1191.16 633.64 1190.03 627.097 1191.45L622.261 1192.58C619.7 1193.15 617.14 1194.29 614.864 1195.43L612.304 1196.28C609.459 1197.14 606.899 1198.56 604.623 1200.26L602.916 1201.69C601.209 1202.54 599.502 1203.11 597.795 1203.96L594.382 1205.95C591.821 1207.09 589.261 1207.94 586.985 1209.36L584.994 1210.5C584.425 1210.79 583.571 1211.07 583.002 1211.36C582.149 1211.64 581.296 1211.92 580.442 1212.49C579.873 1212.78 579.589 1212.78 579.02 1213.06C576.459 1212.21 573.899 1211.92 571.339 1211.92H567.071C563.658 1211.92 561.097 1212.49 558.253 1213.63C555.692 1213.63 553.416 1213.63 550.856 1214.48L544.882 1215.91L536.632 1217.04C532.934 1217.33 529.236 1217.61 525.537 1218.18H524.684C522.977 1218.18 521.27 1218.47 519.563 1218.75C518.994 1218.75 518.71 1218.75 518.141 1218.75L512.167 1219.32C510.46 1219.6 509.037 1219.89 507.615 1220.17L501.925 1220.46C499.365 1220.46 496.805 1220.74 494.244 1221.59C490.262 1221.88 486.279 1223.3 483.15 1225.29C468.072 1225.58 456.977 1239.23 459.538 1254.02C435.926 1257.15 412.03 1258.57 387.564 1258.57C386.995 1258.57 386.426 1258.57 385.573 1258.57C381.875 1249.75 373.056 1243.78 362.814 1243.78H347.452C344.608 1243.78 341.478 1244.35 338.918 1245.48H337.211C336.927 1245.48 336.927 1245.48 336.927 1245.48L335.22 1244.63C332.944 1243.49 330.099 1242.64 327.539 1242.07C325.547 1241.22 323.272 1240.37 320.996 1240.08C318.72 1239.8 316.729 1239.23 314.453 1238.94C313.599 1238.94 312.746 1238.66 311.892 1238.66C310.186 1237.81 308.194 1237.24 306.487 1236.95L303.642 1236.38C302.22 1236.1 301.082 1236.1 299.66 1235.81C298.237 1235.53 296.815 1234.96 295.393 1234.68L293.117 1234.11C291.41 1233.82 289.703 1233.54 287.996 1233.54H286.289C284.867 1233.25 283.444 1232.97 282.022 1232.97C281.453 1232.97 281.169 1232.69 280.6 1232.69L277.47 1231.55C274.91 1230.7 272.065 1230.13 269.22 1230.13C268.651 1229.84 268.082 1229.84 267.513 1229.56C266.091 1228.99 264.669 1228.42 263.246 1228.14C261.255 1227.28 259.263 1226.43 256.988 1226.14C255.565 1225.58 253.858 1225.01 252.436 1224.72C249.876 1222.73 246.746 1221.03 243.617 1220.17L245.039 1221.03C242.764 1219.6 240.203 1218.47 237.643 1217.9C237.074 1217.61 236.505 1217.61 235.936 1217.33C235.083 1217.04 234.229 1216.47 233.376 1216.19C231.953 1215.05 230.531 1214.2 228.824 1213.35L228.54 1213.06L227.117 1212.21C222.85 1209.36 218.014 1207.94 213.178 1207.94H211.755C202.083 1207.94 193.833 1213.35 189.85 1221.31C51.5927 1169.55 -60.7771 1064.32 -121.94 930.93H895.647Z"
                fill="#3867A1" />
            <path fill-rule="evenodd" clip-rule="evenodd"
                d="M72.3594 102.453C57.5664 106.719 50.1699 108.71 50.1699 108.71C160.833 108.995 216.022 109.279 216.022 109.279C195.824 105.582 185.583 103.875 185.583 103.875C184.729 97.3338 180.178 91.6457 173.634 89.6548C167.376 87.664 160.264 89.3704 155.428 94.2054C155.997 84.2511 150.876 75.1501 142.342 70.0307C133.807 65.1958 123.281 65.1958 115.031 70.5995C106.782 76.0033 101.945 85.3887 102.799 95.343C99.3851 88.8016 91.9886 85.6731 84.5921 87.3796C78.049 88.8016 72.6439 95.0586 72.3594 102.453Z"
                fill="white" />
            <path fill-rule="evenodd" clip-rule="evenodd"
                d="M276.332 198.299C254.427 204.556 243.617 207.685 243.617 207.685C407.762 208.253 489.693 208.538 489.693 208.538C459.538 203.134 444.46 200.574 444.46 200.574C443.038 190.62 436.21 182.372 426.823 179.244C417.435 176.115 406.909 178.675 400.081 185.785C400.65 171.28 393.254 157.345 380.452 149.95C367.651 142.555 352.004 142.84 339.772 150.803C327.539 158.767 320.427 172.703 321.849 187.492C316.444 178.106 305.634 172.987 295.108 175.547C284.582 178.391 276.901 187.492 276.332 198.299Z"
                fill="white" />
            <path fill-rule="evenodd" clip-rule="evenodd"
                d="M-110.353 426.504C-145.603 436.585 -163 441.625 -163 441.625C101.153 442.542 233 443 233 443C184.473 434.294 160.209 430.17 160.209 430.17C157.92 414.132 146.933 400.843 131.825 395.802C116.718 390.762 99.7792 394.886 88.7919 406.342C89.7075 382.972 77.8046 360.519 57.2034 348.605C36.6023 336.691 11.4231 337.149 -8.26241 349.979C-27.948 362.81 -39.3931 385.263 -37.104 409.091C-45.8023 393.969 -63.1989 385.721 -80.1376 389.845C-97.0763 394.428 -109.437 409.091 -110.353 426.504Z"
                fill="white" />
            <path fill-rule="evenodd" clip-rule="evenodd"
                d="M639.715 254.69C617.81 260.947 607 264.075 607 264.075C771.145 264.644 853.076 264.929 853.076 264.929C822.921 259.525 807.843 256.965 807.843 256.965C806.421 247.011 799.593 238.763 790.205 235.635C780.818 232.506 770.292 235.066 763.464 242.176C764.033 227.671 756.637 213.735 743.835 206.341C731.033 198.946 715.387 199.23 703.154 207.194C690.922 215.157 683.81 229.093 685.232 243.882C679.827 234.497 669.017 229.378 658.491 231.937C647.965 234.781 640.284 243.882 639.715 254.69Z"
                fill="white" />
            <path fill-rule="evenodd" clip-rule="evenodd"
                d="M533.208 87.5937C519.677 91.5087 513 93.4661 513 93.4661C614.392 93.8221 665 94 665 94C646.373 90.6189 637.06 89.0173 637.06 89.0173C636.181 82.7889 631.964 77.6283 626.165 75.6708C620.366 73.7133 613.865 75.3149 609.647 79.7637C609.999 70.6881 605.43 61.9684 597.523 57.3416C589.615 52.7148 579.95 52.8927 572.394 57.8754C564.838 62.8581 560.445 71.5778 561.324 80.8314C557.985 74.959 551.307 71.7558 544.806 73.3574C538.304 75.1369 533.56 80.8314 533.208 87.5937Z"
                fill="white" />
            <path fill-rule="evenodd" clip-rule="evenodd"
                d="M804.328 1070.57C798.639 1076.83 792.949 1083.09 787.26 1089.06H-12.9841C-18.9582 1083.09 -24.6478 1076.83 -30.053 1070.57H804.328ZM862.647 992.078C858.664 998.619 854.397 1005.16 849.845 1011.7H-76.1388C-80.406 1005.16 -84.6732 998.619 -88.9404 992.078H862.647Z"
                fill="white" />
            <path fill-rule="evenodd" clip-rule="evenodd"
                d="M0.670959 1102.43C-16.3979 1086.22 -32.6133 1069.15 -47.4062 1050.95V8.02933C-32.6133 -6.19105 -16.3979 -18.705 0.670959 -29.7969V1102.43Z"
                fill="#5A90D1" />
            <path fill-rule="evenodd" clip-rule="evenodd"
                d="M457.831 1253.45C523.831 1245.2 587.839 1225.01 646.726 1194.01C646.726 1194.01 624.252 1133.15 579.304 1011.14C350.866 1006.87 236.505 1004.59 236.505 1004.59C202.368 1148.5 185.299 1220.46 185.299 1220.46C249.591 1245.2 317.867 1257.72 386.711 1257.72C404.918 1202.54 414.306 1174.95 414.306 1174.95C443.323 1227.28 457.831 1253.45 457.831 1253.45Z"
                fill="white" />
            <path fill-rule="evenodd" clip-rule="evenodd"
                d="M376.186 1093.61C388.418 1081.38 406.34 1076.83 422.556 1081.95C422.556 1081.95 405.203 1140.54 370.496 1257.71C331.522 1258.28 292.548 1251.17 256.135 1236.95C284.583 1245.48 315.307 1238.66 337.212 1218.75C363.953 1194.86 365.66 1172.39 364.237 1151.91C363.384 1130.58 358.832 1110.96 376.186 1093.61Z"
                fill="#D6D5E9" />
            <path fill-rule="evenodd" clip-rule="evenodd"
                d="M433.365 1114.37C424.831 1150.49 420.279 1168.41 420.279 1168.41C420.279 1168.41 436.495 1196.28 468.925 1251.74C492.822 1248.33 516.434 1243.21 539.477 1236.67C539.477 1236.67 509.037 1184.34 448.443 1079.39C444.46 1091.34 439.34 1103.28 433.365 1114.37Z"
                fill="#D6D5E9" />
            <path fill-rule="evenodd" clip-rule="evenodd"
                d="M272.918 1022.23C360.538 1056.64 456.124 1058.34 544.028 1027.91C585.278 1013.69 586.7 1015.4 588.976 953.114C590.399 913.013 592.674 852.434 595.804 771.378C595.804 771.378 609.459 788.727 636.769 823.424C636.769 823.424 667.777 796.406 729.794 742.652C729.794 742.652 723.82 731.561 712.156 709.377C691.389 670.413 675.174 622.633 640.183 597.605C610.597 576.558 538.623 561.201 501.641 549.824C390.693 551.815 338.918 550.677 338.918 550.677C272.349 555.228 169.652 559.778 111.049 561.769C137.79 642.541 147.178 688.615 147.178 688.615C197.246 708.239 220.005 717.625 220.005 717.625C222.565 814.039 223.419 885.994 225.694 933.206C229.393 1011.13 227.401 1004.31 272.918 1022.23Z"
                fill="#F0F2F5" />
            <path fill-rule="evenodd" clip-rule="evenodd"
                d="M371.349 572.008C385.573 595.045 413.736 605.568 439.624 597.604C465.512 589.357 482.58 564.613 481.158 537.594C481.158 537.594 477.175 526.787 468.925 505.172C379.599 509.154 346.883 531.622 371.349 572.008Z"
                fill="#F89226" />
            <path fill-rule="evenodd" clip-rule="evenodd"
                d="M388.419 579.404C404.349 592.771 412.599 599.313 412.599 599.313C412.599 599.313 430.806 568.597 467.504 507.449C364.238 517.119 338.066 541.009 388.419 579.404Z"
                fill="#F24C00" />
            <path fill-rule="evenodd" clip-rule="evenodd"
                d="M439.624 510.578C425.684 500.055 407.193 498.064 391.262 505.458C375.331 512.853 365.09 528.211 364.236 545.844C363.383 563.193 372.202 579.689 386.995 588.79C386.995 588.79 404.348 562.624 439.624 510.578Z"
                fill="#CE0F00" />
            <path fill-rule="evenodd" clip-rule="evenodd"
                d="M388.987 568.312C382.444 585.377 388.702 604.716 403.495 614.955C418.573 625.194 438.771 624.056 452.141 611.827C465.797 599.597 469.21 579.689 460.391 563.762C454.986 578.267 441.331 588.221 425.969 589.074C410.892 589.927 396.383 581.964 388.987 568.312Z"
                fill="white" />
            <path fill-rule="evenodd" clip-rule="evenodd"
                d="M426.254 619.505C434.219 628.322 438.202 632.872 438.202 632.872C441.616 621.212 463.805 611.257 483.719 596.753C491.969 590.78 507.331 578.551 509.891 568.312C514.727 549.541 500.788 529.632 483.15 521.669C479.736 520.247 476.322 519.109 472.34 519.109C470.064 519.109 468.641 520.247 471.202 522.522C480.021 529.917 478.314 538.449 472.908 546.697C461.245 566.321 425.969 597.321 426.254 619.505Z"
                fill="#22234C" />
            <path fill-rule="evenodd" clip-rule="evenodd"
                d="M419.427 619.505C411.461 628.322 407.479 632.872 407.479 632.872C404.065 621.212 381.875 611.257 361.962 596.753C353.712 590.78 338.35 578.551 335.79 568.312C330.953 549.541 344.893 529.632 362.531 521.669C365.945 520.247 369.358 519.109 373.341 519.109C375.617 519.109 377.039 520.247 374.479 522.522C365.66 529.917 367.367 538.449 372.772 546.697C384.436 566.321 419.711 597.321 419.427 619.505Z"
                fill="#22234C" />
            <path fill-rule="evenodd" clip-rule="evenodd"
                d="M489.693 406.198C393.255 401.932 344.893 399.941 344.893 399.941C338.065 406.483 334.936 416.437 336.643 426.107C340.91 447.722 336.927 445.447 334.083 462.227C332.091 473.887 338.065 489.814 341.479 500.906C346.6 517.971 351.151 531.338 355.134 541.576C363.953 564.613 398.091 558.641 426.254 545.274C460.107 529.062 479.737 506.31 482.581 464.786C487.418 425.823 489.693 406.198 489.693 406.198Z"
                fill="#FFA649" />
            <path fill-rule="evenodd" clip-rule="evenodd"
                d="M369.643 401.079L344.893 399.941C338.065 406.483 334.936 416.437 336.643 426.107C340.91 447.722 336.927 445.447 334.083 462.227C332.091 473.887 338.065 489.814 341.479 500.906C346.6 517.971 351.151 531.338 355.134 541.576C361.962 559.21 383.582 559.779 406.056 553.237C377.893 527.925 360.255 491.521 360.255 450.85C360.539 433.217 363.669 416.437 369.643 401.079Z"
                fill="#FFD98D" />
            <path fill-rule="evenodd" clip-rule="evenodd"
                d="M386.426 406.485C356.84 412.741 342.047 415.87 342.047 415.87C360.254 428.099 381.021 435.779 402.357 438.907C419.426 441.467 441.9 435.494 450.718 451.705C458.968 467.063 446.736 475.027 441.615 487.541C432.796 510.578 450.149 523.376 433.934 535.89C458.115 521.954 472.908 499.486 478.029 468.77C471.486 410.466 440.762 389.704 386.426 406.485Z"
                fill="#F55B0D" />
            <path fill-rule="evenodd" clip-rule="evenodd"
                d="M462.667 436.914C466.935 444.877 469.21 448.859 469.21 448.859C469.21 448.859 464.09 450.85 454.133 455.116C453.279 465.07 447.305 474.171 438.486 479.291C429.668 484.41 418.857 484.695 409.754 480.144C419.142 480.713 427.961 477.016 434.219 470.19C440.478 463.364 443.038 453.979 441.331 444.877C455.84 439.474 462.667 436.914 462.667 436.914Z"
                fill="#D11D00" />
            <path fill-rule="evenodd" clip-rule="evenodd"
                d="M498.796 415.87C497.943 422.127 496.236 429.806 489.124 439.191C489.124 439.191 486.279 444.026 480.305 453.98C480.305 457.109 478.598 459.953 476.038 461.375C473.193 462.797 470.064 462.797 467.219 461.091C460.676 456.824 465.512 448.861 461.814 440.898C455.84 427.815 437.349 427.815 444.745 408.191C466.081 399.09 484.288 401.649 498.796 415.87Z"
                fill="#05050C" />
            <path fill-rule="evenodd" clip-rule="evenodd"
                d="M474.616 407.621C437.633 379.465 390.979 367.52 344.893 374.061C296.531 396.245 298.238 406.199 316.729 411.319C344.608 419.282 456.694 425.823 474.616 407.621Z"
                fill="#3A3B5E" />
            <path fill-rule="evenodd" clip-rule="evenodd"
                d="M412.314 440.613H412.883C414.59 440.613 416.012 442.035 416.012 443.742V449.146C416.012 450.852 414.59 452.274 412.883 452.274H412.314C410.607 452.274 409.185 450.852 409.185 449.146V443.742C408.9 442.035 410.323 440.613 412.314 440.613Z"
                fill="black" />
            <path fill-rule="evenodd" clip-rule="evenodd"
                d="M351.719 438.055H352.288C353.995 438.055 355.417 439.477 355.417 441.183V446.302C355.417 448.009 353.995 449.431 352.288 449.431H351.719C350.012 449.431 348.59 448.009 348.59 446.302V441.183C348.874 439.477 350.012 438.055 351.719 438.055Z"
                fill="black" />
            <path
                d="M396.953 422.98C395.815 423.264 394.678 422.411 394.393 421.273C394.109 420.136 394.962 418.998 396.1 418.714C402.358 417.576 408.617 417.86 414.591 419.282C420.565 420.989 425.97 423.833 430.807 428.099C431.66 428.952 431.66 430.374 431.091 431.228C430.238 432.081 428.815 432.081 427.962 431.512C423.695 427.815 418.858 424.971 413.453 423.549C408.048 422.127 402.358 422.127 396.953 422.98Z"
                fill="#05050C" />
            <path
                d="M358.832 416.437C359.97 416.437 360.823 417.574 360.823 418.712C360.823 419.85 359.686 420.703 358.548 420.703C354.565 420.134 350.298 420.418 346.315 421.272C342.332 422.125 338.634 423.831 334.936 425.822C333.798 426.391 332.66 426.107 332.091 425.253C331.522 424.116 331.806 422.978 332.66 422.409C336.643 419.85 340.91 418.143 345.177 417.29C349.729 416.152 354.28 415.868 358.832 416.437Z"
                fill="#05050C" />
            <path
                d="M363.667 431.226C359.4 426.676 353.426 423.832 346.883 423.832C340.34 423.832 334.366 426.676 330.099 431.226C325.831 435.777 323.271 442.034 323.271 448.859C323.271 455.685 325.831 461.942 330.099 466.493C334.366 471.043 340.34 473.887 346.883 473.887C353.426 473.887 359.4 471.043 363.667 466.493C367.935 461.942 370.495 455.685 370.495 448.859C370.495 442.034 367.935 435.777 363.667 431.226ZM433.65 433.501C429.098 428.951 422.555 426.107 415.727 426.107C408.615 426.107 402.357 428.951 397.805 433.501C393.253 438.052 390.409 444.593 390.409 451.419C390.409 458.529 393.253 464.786 397.805 469.337C402.357 473.887 408.9 476.731 415.727 476.731C422.839 476.731 429.098 473.887 433.65 469.337C438.201 464.786 441.046 458.245 441.046 451.419C441.046 444.593 438.201 438.336 433.65 433.501ZM346.883 420.703C354.28 420.703 361.107 423.832 365.943 428.951C368.219 431.511 370.21 434.355 371.348 437.483C372.202 436.63 373.34 436.061 374.193 435.492C376.184 434.639 378.176 434.07 380.452 434.07C382.728 434.07 384.719 434.639 386.71 435.777C387.848 436.346 388.702 437.199 389.555 438.052C390.978 435.492 392.684 433.217 394.676 431.226C399.796 426.107 407.193 422.694 415.158 422.694C423.124 422.694 430.52 425.822 435.641 431.226C438.77 434.355 441.046 438.052 442.468 442.318L490.261 423.832L491.399 426.96L443.322 445.447C443.891 447.437 443.891 449.428 443.891 451.704C443.891 459.667 440.762 467.062 435.356 472.181C430.236 477.3 422.839 480.713 414.874 480.713C406.908 480.713 399.512 477.585 394.391 472.181C389.271 467.062 385.857 459.667 385.857 451.704C385.857 448.291 386.426 444.878 387.564 441.465C386.71 440.327 385.572 439.474 384.434 438.905C383.012 438.052 381.305 437.768 379.883 437.483C378.176 437.483 376.469 437.768 375.047 438.621C373.909 439.19 372.771 440.043 371.917 440.896C372.771 443.456 373.055 446.3 373.055 448.859C373.055 456.823 369.926 463.933 365.09 469.052C360.254 474.172 353.426 477.3 346.03 477.3C338.633 477.3 331.806 474.172 326.969 469.052C322.133 463.933 319.004 456.823 319.004 448.859C319.004 440.896 322.133 433.786 326.969 428.667C332.659 423.832 339.487 420.703 346.883 420.703Z"
                fill="white" />
            <path fill-rule="evenodd" clip-rule="evenodd"
                d="M336.358 432.363C340.341 432.363 343.47 435.492 343.47 439.473C343.47 443.455 340.341 446.584 336.358 446.584C332.375 446.584 329.246 443.455 329.246 439.473C329.246 435.776 332.375 432.363 336.358 432.363Z"
                fill="white" />
            <path fill-rule="evenodd" clip-rule="evenodd"
                d="M400.936 434.926C404.065 434.926 406.625 437.485 406.625 440.614C406.625 443.742 404.065 446.302 400.936 446.302C397.806 446.302 395.246 443.742 395.246 440.614C395.531 437.485 397.806 434.926 400.936 434.926Z"
                fill="white" />
            <path fill-rule="evenodd" clip-rule="evenodd"
                d="M497.373 419.281C508.468 419.281 515.295 431.226 512.735 446.3C510.175 461.089 499.08 473.319 487.985 473.319C476.891 473.319 470.063 461.374 472.623 446.3C475.184 431.511 486.278 419.281 497.373 419.281Z"
                fill="#FFAC55" />
            <path fill-rule="evenodd" clip-rule="evenodd"
                d="M498.796 430.375C505.623 430.375 509.89 437.77 508.184 446.871C506.477 455.972 499.934 463.366 493.106 463.366C486.279 463.366 482.011 455.972 483.718 446.871C485.425 437.77 491.968 430.375 498.796 430.375Z"
                fill="#F55B0D" />
            <path fill-rule="evenodd" clip-rule="evenodd"
                d="M492.823 435.777C496.806 435.777 499.082 440.043 498.229 445.163C497.375 450.282 493.392 454.548 489.41 454.548C485.427 454.548 483.151 450.282 484.005 445.163C485.142 440.043 489.125 435.777 492.823 435.777Z"
                fill="#D11D00" />
            <path fill-rule="evenodd" clip-rule="evenodd"
                d="M374.478 444.311C379.314 436.348 380.737 437.77 380.737 448.008C380.737 448.008 380.452 454.834 380.168 468.486C383.012 467.633 385.857 468.201 387.849 470.477C389.84 472.467 390.409 475.596 388.987 478.156C387.849 480.715 385.288 482.422 382.159 482.422C380.168 480.146 376.469 480.715 371.349 484.128C355.418 485.55 352.573 480.431 359.97 467.633C359.97 467.917 364.806 459.954 374.478 444.311Z"
                fill="#F24C00" />
            <path
                d="M358.264 500.052C357.695 499.768 357.695 499.199 357.41 498.63C357.41 498.061 357.695 497.492 357.979 496.924C358.264 496.355 358.833 496.355 359.402 496.07C359.97 496.07 360.539 496.355 361.108 496.639C363.384 498.63 365.945 500.052 368.505 501.19C371.35 502.327 374.194 502.896 377.039 502.896C379.884 502.896 383.013 502.612 385.858 501.758C388.703 500.905 391.263 499.483 393.539 497.777C394.108 497.492 394.677 497.208 395.246 497.208C395.815 497.208 396.384 497.492 396.668 498.061C396.953 498.63 397.237 499.199 397.237 499.768C397.237 500.336 396.953 500.905 396.384 501.19C393.539 503.465 390.41 504.887 387.281 506.025C383.867 507.162 380.453 507.447 377.039 507.447C373.626 507.447 370.212 506.593 366.798 505.456C363.953 504.318 360.824 502.612 358.264 500.052Z"
                fill="#D11D00" />
            <path
                d="M369.359 510.577C369.074 510.292 369.074 510.008 369.074 509.724C369.074 509.439 369.074 509.155 369.359 508.87C369.643 508.586 369.928 508.586 370.212 508.586C370.497 508.586 370.781 508.586 371.066 508.87C371.919 509.724 373.057 510.292 374.195 510.861C375.333 511.43 376.471 511.43 377.893 511.714C379.031 511.714 380.453 511.714 381.591 511.146C382.729 510.861 383.867 510.292 384.721 509.439C385.005 509.155 385.29 509.155 385.574 509.155C385.859 509.155 386.143 509.439 386.428 509.439C386.712 509.724 386.712 510.008 386.712 510.292C386.712 510.577 386.428 510.861 386.428 511.146C385.29 511.999 383.867 512.852 382.445 513.136C381.022 513.705 379.6 513.705 378.178 513.705C376.755 513.705 375.333 513.421 373.91 512.852C371.635 512.283 370.497 511.43 369.359 510.577Z"
                fill="#D11D00" />
            <path fill-rule="evenodd" clip-rule="evenodd"
                d="M419.142 379.464C395.246 372.354 369.927 370.363 344.893 374.061C296.531 396.245 298.238 406.199 316.729 411.318C320.143 412.171 324.979 413.309 330.384 414.162C342.048 400.795 357.41 390.272 375.332 384.299C390.125 379.464 404.918 378.042 419.142 379.464Z"
                fill="#3A3B5E" />
            <path fill-rule="evenodd" clip-rule="evenodd"
                d="M107.066 556.652C100.808 631.451 97.6785 668.708 97.6785 668.708C58.1357 657.901 23.998 646.24 1.52408 635.148C-21.8033 623.772 -58.7858 589.927 -49.1135 562.055C-44.8462 549.826 -31.7601 538.45 -11.2775 523.66C39.0755 487.256 134.661 418.998 192.126 395.393C206.066 389.704 220.29 385.154 234.798 381.741C242.195 379.466 249.022 378.613 255.281 378.328C272.35 378.328 303.358 386.86 326.685 393.117C340.056 396.53 362.814 401.365 349.728 413.026C340.056 421.842 319.858 423.549 306.487 426.393C311.608 435.21 300.513 442.32 287.143 448.292C266.091 457.393 231.953 463.366 209.764 456.825C145.187 521.385 107.066 556.652 107.066 556.652Z"
                fill="#FFA649" />
            <path
                d="M418.004 1176.09C417.435 1178.08 415.159 1179.22 413.168 1178.65C411.176 1178.08 410.038 1175.81 410.607 1173.82L429.952 1110.11C430.237 1109.54 430.521 1108.97 431.09 1108.4C436.211 1103.57 439.34 1097.03 440.762 1090.49C442.185 1083.94 441.331 1076.83 438.486 1070.29C437.633 1068.3 438.486 1066.03 440.478 1065.17C442.469 1064.32 444.745 1065.17 445.599 1067.16C449.297 1075.13 450.15 1083.66 448.443 1091.91C447.021 1099.87 443.038 1107.27 437.349 1113.24L418.004 1176.09Z"
                fill="#797A9C" />
            <path
                d="M301.083 555.512C302.221 553.806 301.937 551.246 300.23 550.108C298.523 548.971 295.963 549.255 294.825 550.962C289.704 558.356 285.721 567.742 283.73 578.834C282.023 588.788 281.739 600.449 283.446 613.531C283.446 613.531 283.446 613.531 283.446 613.816L337.781 1039.29C338.066 1041.28 340.057 1042.99 342.049 1042.7C344.04 1042.42 345.747 1040.43 345.462 1038.44L291.127 612.962V612.678C289.42 600.448 289.704 589.641 291.411 580.54C293.118 570.586 296.532 562.338 301.083 555.512Z"
                fill="#3F4079" />
            <path fill-rule="evenodd" clip-rule="evenodd"
                d="M310.754 614.953C315.022 614.953 318.72 618.366 318.72 622.917C318.72 627.183 315.306 630.88 310.754 630.88C306.487 630.88 302.789 627.467 302.789 622.917C302.789 618.366 306.203 614.953 310.754 614.953Z"
                fill="#0F113A" />
            <path fill-rule="evenodd" clip-rule="evenodd"
                d="M321.28 710.23C325.547 710.23 329.245 713.643 329.245 718.194C329.245 722.46 325.832 726.157 321.28 726.157C317.013 726.157 313.314 722.744 313.314 718.194C313.599 713.643 317.013 710.23 321.28 710.23Z"
                fill="#0F113A" />
            <path fill-rule="evenodd" clip-rule="evenodd"
                d="M564.512 1077.68C516.15 1129.73 656.114 1159.88 674.606 1039.29L736.338 933.49C769.053 877.746 792.95 849.874 759.096 782.754L662.373 854.425L608.606 1009.43C574.184 1022.51 565.65 1041.85 596.089 1033.03C608.606 1029.05 610.313 1032.18 607.468 1037.3C599.218 1054.08 577.029 1064.32 564.512 1077.68Z"
                fill="#FFA649" />
            <path fill-rule="evenodd" clip-rule="evenodd"
                d="M754.829 799.535C696.511 817.737 667.209 826.838 667.209 826.838C711.304 829.682 732.924 884.004 694.519 916.427C684.278 924.959 674.606 933.207 668.632 944.014C651.563 975.015 679.726 996.914 671.192 1024.79C718.985 942.308 742.881 901.069 742.881 901.069C765.639 861.82 769.622 827.976 754.829 799.535Z"
                fill="#F24C00" />
            <path fill-rule="evenodd" clip-rule="evenodd"
                d="M660.95 858.694C671.76 846.464 677.165 840.207 677.165 840.207C685.984 851.583 689.967 865.804 688.26 880.024C684.277 909.887 661.234 915.859 649.571 933.208C634.209 955.676 652.984 973.025 636.2 994.925C629.657 1003.46 619.416 1008.86 608.605 1009.43C633.924 936.621 651.278 886.281 660.95 858.694Z"
                fill="#FFD98D" />
            <path fill-rule="evenodd" clip-rule="evenodd"
                d="M107.636 603.009C95.4035 639.129 89.1449 657.331 89.1449 657.331C68.6623 650.506 38.7919 639.698 0.102539 624.34C56.7142 640.551 70.9382 593.908 107.636 603.009Z"
                fill="#F24C00" />
            <path fill-rule="evenodd" clip-rule="evenodd"
                d="M56.4297 589.928C71.2227 582.534 80.326 575.708 83.7398 568.598C83.7398 568.598 126.412 528.781 211.472 449.147C222.566 451.706 236.506 453.128 253.859 452.844C235.652 419.568 192.696 421.275 174.489 459.67C167.093 475.597 155.998 492.946 106.214 498.918C58.1366 504.322 29.973 548.405 56.4297 589.928Z"
                fill="#F24C00" />
            <path
                d="M306.487 424.118C307.625 423.833 309.047 424.686 309.332 425.824C309.616 426.962 308.763 428.384 307.625 428.668L265.237 437.2C264.099 437.485 262.677 436.632 262.393 435.494C262.108 434.356 262.962 432.934 264.099 432.65L306.487 424.118ZM100.239 556.083C101.661 554.945 103.652 555.23 104.506 556.652C105.644 558.074 105.359 560.064 103.937 560.918L59.8424 594.762C58.42 595.9 56.4286 595.615 55.5752 594.193C54.4373 592.771 54.7218 590.78 56.1442 589.927L100.239 556.083Z"
                fill="#F24C00" />
            <path fill-rule="evenodd" clip-rule="evenodd"
                d="M-41.432 597.322C-28.6303 615.524 -11.846 629.46 9.77453 638.845C-0.46677 633.726 -7.2943 623.487 -7.86326 611.826C-9.57014 587.083 14.0417 581.679 27.6968 558.073C41.3519 534.752 30.5416 511.999 51.0242 495.219C64.6793 484.127 77.1964 486.971 90.567 488.109C125.843 490.953 138.075 472.751 148.886 443.173C151.446 436.063 154.575 429.806 161.972 424.686C178.187 413.025 201.799 417.007 211.756 388.566C193.265 394.539 175.342 402.502 157.704 412.457C129.825 427.815 100.524 446.017 70.0844 466.778C43.0588 485.265 15.7486 504.32 -11.277 523.944C-19.527 529.348 -28.9148 537.027 -39.4406 547.266C-45.9837 554.092 -49.6819 560.917 -50.5353 567.743C-51.3888 577.129 -48.2595 587.083 -41.432 597.322Z"
                fill="#FFD98D" />
            <path fill-rule="evenodd" clip-rule="evenodd"
                d="M559.959 1005.16C569.916 1001.46 574.752 996.06 575.037 989.518L584.994 738.671C569.632 682.927 513.304 648.514 456.693 660.459C400.081 672.404 362.245 726.157 370.495 783.607C384.15 877.746 474.615 853.856 485.425 944.866C489.408 977.573 477.175 1010.28 452.426 1032.46C489.124 1027.06 524.968 1017.96 559.959 1005.16Z"
                fill="#D6D5E9" />
            <path fill-rule="evenodd" clip-rule="evenodd"
                d="M229.677 671.835C224.556 696.579 221.712 708.808 221.712 708.808C221.712 708.808 198.1 699.992 151.16 682.359C151.16 682.359 149.454 657.331 146.324 607.275C208.91 603.009 201.229 668.138 229.677 671.835Z"
                fill="#D6D5E9" />
            <path fill-rule="evenodd" clip-rule="evenodd"
                d="M644.45 810.341C670.907 792.423 695.941 773.084 719.553 751.753C719.553 751.753 708.174 729 685.415 683.211C664.364 640.55 660.95 620.641 615.148 597.888C592.39 586.797 562.804 577.127 526.106 568.879C522.692 593.054 528.666 617.513 542.89 637.706C565.364 669.559 598.08 672.688 625.105 682.358C683.139 702.835 690.82 775.359 644.45 810.341Z"
                fill="#D6D5E9" />
            <path
                d="M599.788 771.949C599.503 773.94 597.227 775.362 595.236 775.077C593.244 774.793 591.822 772.802 592.107 770.527L620.555 624.626C620.839 622.635 623.115 621.213 625.106 621.497C627.098 621.782 628.52 623.772 628.236 626.048L599.788 771.949Z"
                fill="#797A9C" />
            <path
                d="M536.633 558.641C535.495 556.935 535.779 554.375 537.486 553.237C539.193 552.1 541.753 552.384 542.891 554.09C548.012 561.485 551.995 570.871 553.986 581.962C555.693 591.917 555.977 603.577 554.271 616.66C554.271 616.66 554.271 616.66 554.271 616.945L499.935 1042.42C499.65 1044.41 497.659 1046.12 495.668 1045.83C493.676 1045.55 491.969 1043.56 492.254 1041.57L546.59 616.091V615.807C548.296 603.577 548.012 592.77 546.305 583.669C544.598 573.715 541.184 565.182 536.633 558.641Z"
                fill="#3F4079" />
            <path fill-rule="evenodd" clip-rule="evenodd"
                d="M526.106 614.953C530.373 614.953 534.072 618.366 534.072 622.917C534.072 627.183 530.658 630.88 526.106 630.88C521.839 630.88 518.141 627.467 518.141 622.917C518.141 618.366 521.839 614.953 526.106 614.953Z"
                fill="#0F113A" />
            <path fill-rule="evenodd" clip-rule="evenodd"
                d="M518.995 710.23C523.262 710.23 526.96 713.643 526.96 718.194C526.96 722.46 523.546 726.157 518.995 726.157C514.728 726.157 511.029 722.744 511.029 718.194C511.029 713.643 514.728 710.23 518.995 710.23Z"
                fill="#0F113A" />
            <path fill-rule="evenodd" clip-rule="evenodd"
                d="M665.217 860.966C671.476 862.103 679.726 856.7 697.648 843.901C709.596 835.085 725.243 823.708 743.45 809.204C765.923 791.002 766.208 791.57 755.113 771.377C752.268 766.258 748.286 760.286 744.303 753.175C734.346 736.395 731.217 730.138 722.682 734.973C707.889 743.79 657.536 796.405 644.735 810.626C634.209 822.286 634.493 824.846 642.743 837.36C649.571 847.314 660.381 860.113 665.217 860.966Z"
                fill="white" />
            <path fill-rule="evenodd" clip-rule="evenodd"
                d="M347.454 832.527C343.187 830.537 340.342 828.83 338.635 827.408C332.945 822.858 335.79 818.876 338.35 807.784C354.281 738.957 377.609 680.654 408.617 632.589C413.453 622.066 419.427 619.222 426.255 624.057C423.126 702.269 414.876 768.82 402.359 823.142C399.514 835.94 397.807 839.353 390.126 840.206C376.471 841.913 359.686 838.5 347.454 832.527Z"
                fill="#0F113A" />
            <path fill-rule="evenodd" clip-rule="evenodd"
                d="M501.641 839.637C505.908 837.646 508.753 835.939 510.46 834.517C516.149 829.967 513.305 825.985 510.744 814.893C494.813 746.067 471.486 687.763 440.478 639.698C435.641 629.175 429.667 626.331 422.84 631.166C425.969 709.378 434.219 775.929 446.736 830.251C449.581 843.05 451.288 846.463 458.969 847.316C472.624 848.738 489.408 845.609 501.641 839.637Z"
                fill="#22234C" />
            <path
                d="M408.048 635.149C404.634 637.709 399.798 637.14 397.238 633.727C394.677 630.314 395.246 625.479 398.66 622.92C406.057 617.516 414.875 614.956 423.41 615.81C431.944 616.378 440.194 620.076 446.737 626.617C449.582 629.746 449.582 634.58 446.737 637.424C443.608 640.269 438.772 640.269 435.927 637.424C432.229 633.727 427.393 631.452 422.556 631.168C417.436 630.599 412.315 632.021 408.048 635.149Z"
                fill="#3F4079" />
            <path
                d="M223.988 717.91C223.419 719.901 221.427 721.323 219.436 720.754C217.445 720.186 216.022 718.195 216.591 716.204L240.488 601.588C241.057 599.597 243.048 598.175 245.039 598.744C247.031 599.312 248.453 601.303 247.884 603.294L223.988 717.91Z"
                fill="#797A9C" />
            <path fill-rule="evenodd" clip-rule="evenodd"
                d="M101.946 558.642C96.8257 562.908 94.5499 572.578 91.4206 595.046C89.1448 610.12 86.2999 629.46 83.7396 653.065C80.6103 682.075 80.0414 682.075 102.515 685.772C108.205 686.626 115.317 687.479 123.282 688.332C142.343 690.892 148.886 692.314 151.446 682.644C155.713 665.295 153.722 592.771 152.584 574C151.73 558.358 149.739 557.22 134.946 555.798C122.713 554.66 105.929 555.229 101.946 558.642Z"
                fill="white" />
            <path
                d="M385.573 413.311C384.435 413.311 383.297 412.174 383.297 411.036C383.297 409.898 384.435 408.761 385.573 408.761C405.486 409.045 421.986 408.476 435.357 407.054C448.443 405.632 458.684 403.641 465.227 400.797C466.365 400.229 467.788 400.797 468.357 401.935C468.926 403.073 468.357 404.495 467.219 405.063C460.107 407.908 449.581 410.183 435.926 411.605C422.271 413.027 405.486 413.596 385.573 413.311Z"
                fill="#FFBB33" />
            <path fill-rule="evenodd" clip-rule="evenodd"
                d="M339.772 353.301C382.728 352.163 438.202 368.374 506.762 401.65C533.503 390.843 535.779 378.613 526.391 365.53C511.313 344.2 455.555 309.502 432.797 297.557C406.34 283.621 381.875 273.951 359.97 283.052C334.651 293.006 301.082 339.08 339.772 353.301Z"
                fill="#F2F2F2" />
            <path fill-rule="evenodd" clip-rule="evenodd"
                d="M447.874 378.329C464.09 384.586 481.159 391.98 499.365 400.797C524.115 390.843 526.107 379.467 517.572 367.237C505.624 350.457 466.366 324.576 441.9 310.355C450.15 321.163 454.987 334.246 454.987 348.75C454.987 359.558 452.426 369.512 447.874 378.329Z"
                fill="#DCDFE4" />
            <path fill-rule="evenodd" clip-rule="evenodd"
                d="M375.616 293.859C388.702 293.859 399.797 304.382 400.366 317.465C400.935 330.548 390.693 341.071 377.607 341.071C364.521 341.071 353.426 330.548 352.858 317.465C352.573 304.382 362.53 293.859 375.616 293.859Z"
                fill="#222345" />
            <path
                d="M381.875 312.345C380.453 310.923 378.462 310.07 376.47 310.07H376.186C374.194 310.07 372.488 310.923 371.35 312.345C370.212 313.483 369.358 315.474 369.358 317.18V317.465C369.358 319.455 370.496 321.446 371.919 322.868C373.341 324.29 375.332 325.144 377.324 325.144H377.608C379.6 325.144 381.307 324.29 382.444 322.868C383.582 321.731 384.436 319.74 384.436 318.033V317.749C384.151 315.474 383.298 313.483 381.875 312.345ZM376.186 305.52C379.315 305.52 382.444 306.942 384.72 308.932C386.996 310.923 388.419 314.052 388.419 317.18C388.419 317.465 388.419 317.749 388.419 317.749C388.419 320.878 387.281 323.722 385.289 325.712C383.298 327.703 380.453 329.125 377.608 329.125C377.324 329.125 377.039 329.125 377.039 329.125C373.91 329.125 370.781 327.703 368.505 325.712C366.229 323.722 364.807 320.593 364.807 317.465C364.807 317.18 364.807 316.896 364.807 316.896C364.807 313.767 365.945 310.923 367.936 308.932C369.927 306.942 372.772 305.52 375.617 305.52C376.186 305.52 376.186 305.52 376.186 305.52Z"
                fill="#FFB31C" />
            <path
                d="M346.314 374.06C340.055 374.628 334.935 369.793 334.366 363.821C333.797 357.564 338.633 352.445 344.607 351.876C370.495 349.885 396.667 353.013 423.408 360.977C449.865 368.94 476.606 381.739 503.916 399.372C509.037 402.785 510.459 409.611 507.33 414.73C503.916 419.849 497.089 421.271 491.968 418.143C466.365 401.647 441.615 389.702 417.15 382.307C392.969 375.197 369.357 372.353 346.314 374.06Z"
                fill="#222345" />
            <path
                d="M334.368 366.098C333.23 366.098 332.092 365.245 332.092 364.107C332.092 362.97 332.945 361.832 334.083 361.832C364.523 359.272 394.393 362.401 423.41 370.933C452.427 379.465 480.875 393.686 508.47 413.31C509.323 413.879 509.608 415.301 509.039 416.438C508.47 417.291 507.047 417.576 505.909 417.007C478.599 397.667 450.72 383.731 421.988 375.199C393.824 366.383 364.523 363.538 334.368 366.098Z"
                fill="#FFB31C" />
            <path fill-rule="evenodd" clip-rule="evenodd"
                d="M489.693 396.812C493.107 396.812 495.667 399.657 495.667 403.354C495.667 407.051 493.107 409.895 489.693 409.895C486.279 409.895 483.719 407.051 483.719 403.354C483.719 399.657 486.564 396.812 489.693 396.812Z"
                fill="#FFB31C" />
            <path fill-rule="evenodd" clip-rule="evenodd"
                d="M677.167 385.721H684.848C684.848 384.583 684.563 383.446 684.279 382.308C683.71 380.886 682.856 379.748 682.003 378.611C680.865 377.473 679.727 376.904 678.305 376.335C676.882 376.051 675.46 375.767 674.037 376.051C673.184 376.335 672.331 375.482 672.046 374.629C671.762 373.776 672.615 372.923 673.468 372.638C675.46 372.354 677.451 372.354 679.443 372.923C681.434 373.491 683.141 374.629 684.563 375.767C685.701 376.904 686.839 378.326 687.408 380.033C687.977 378.326 689.115 376.904 690.253 375.767C691.675 374.345 693.382 373.491 695.373 372.923C697.365 372.354 699.356 372.069 701.348 372.638C702.201 372.923 703.054 373.776 702.77 374.629C702.486 375.482 701.632 376.335 700.779 376.051C699.356 375.767 697.934 376.051 696.511 376.335C695.089 376.62 693.951 377.473 692.813 378.611C691.675 379.748 690.822 380.886 690.537 382.308C690.253 383.446 689.968 384.583 689.968 385.721H697.365C698.218 385.721 699.072 386.574 699.072 387.427C699.072 388.281 698.218 389.134 697.365 389.134H677.451C676.598 389.134 675.744 388.281 675.744 387.427C675.46 386.29 676.313 385.721 677.167 385.721Z"
                fill="#5A90D1" />
            <path fill-rule="evenodd" clip-rule="evenodd"
                d="M486.565 264.848H492.539C492.539 263.995 492.254 263.142 491.97 262.288C491.685 261.151 490.832 260.298 490.263 259.444C489.41 258.591 488.556 258.022 487.418 257.738C486.28 257.454 485.142 257.454 484.004 257.454C483.151 257.454 482.582 257.169 482.582 256.316C482.582 255.463 482.866 254.894 483.72 254.894C485.142 254.609 486.849 254.894 488.272 255.178C489.694 255.747 491.116 256.316 492.254 257.454C493.108 258.307 493.961 259.444 494.53 260.582C495.099 259.444 495.953 258.307 496.806 257.454C497.944 256.316 499.366 255.747 500.789 255.178C502.211 254.609 503.634 254.609 505.34 254.894C506.194 254.894 506.478 255.747 506.478 256.316C506.478 257.169 505.625 257.454 505.056 257.454C503.918 257.169 502.78 257.454 501.642 257.738C500.504 258.022 499.651 258.591 498.797 259.444C497.944 260.298 497.375 261.151 497.091 262.288C496.806 263.142 496.522 263.995 496.522 264.848H502.211C503.065 264.848 503.634 265.417 503.634 266.27C503.634 267.123 503.065 267.692 502.211 267.692H487.134C486.28 267.692 485.711 267.123 485.711 266.27C485.142 265.417 485.711 264.848 486.565 264.848Z"
                fill="#5A90D1" />
            <path fill-rule="evenodd" clip-rule="evenodd"
                d="M131.532 320.592H139.213C139.213 319.454 138.928 318.317 138.644 317.179C138.075 315.757 137.222 314.619 136.368 313.482C135.23 312.344 134.092 311.775 132.67 311.207C131.247 310.922 129.825 310.638 128.403 310.922C127.549 311.207 126.696 310.353 126.411 309.5C126.127 308.647 126.98 307.794 127.834 307.509C129.825 307.225 131.816 307.225 133.808 307.794C135.799 308.363 137.506 309.5 138.928 310.638C140.066 311.775 141.204 313.197 141.773 314.904C142.342 313.197 143.48 311.775 144.618 310.638C146.04 309.216 147.747 308.363 149.739 307.794C151.73 307.225 153.721 306.94 155.713 307.509C156.566 307.794 157.42 308.647 157.135 309.5C156.851 310.353 155.997 311.207 155.144 310.922C153.721 310.638 152.299 310.922 150.877 311.207C149.454 311.491 148.316 312.344 147.178 313.482C146.04 314.619 145.187 315.757 144.903 317.179C144.618 318.317 144.334 319.454 144.334 320.592H151.73C152.583 320.592 153.437 321.445 153.437 322.298C153.437 323.152 152.583 324.005 151.73 324.005H131.816C130.963 324.005 130.11 323.152 130.11 322.298C129.825 321.445 130.394 320.592 131.532 320.592Z"
                fill="#5A90D1" />
            <path fill-rule="evenodd" clip-rule="evenodd"
                d="M-85.8106 861.822L441.047 1211.93C442.47 1217.9 446.168 1223.59 451.573 1227.29L473.478 1241.79C479.737 1246.06 485.995 1248.05 491.685 1248.05C498.512 1246.63 505.34 1245.2 512.167 1243.78C514.159 1243.21 515.581 1242.36 516.719 1241.22C524.969 1229.56 521.84 1213.35 510.176 1205.67L479.452 1185.19C473.478 1181.21 466.082 1180.07 459.539 1181.78L-65.328 832.812C-66.466 825.987 -70.1642 819.73 -76.1383 815.748L-106.862 795.271C-118.526 787.592 -134.172 790.72 -141.853 802.381C-149.534 814.042 -146.405 829.684 -134.741 837.363L-104.017 857.84C-98.6123 861.538 -92.0692 862.675 -85.8106 861.822Z"
                fill="#A84E08" />
            <path fill-rule="evenodd" clip-rule="evenodd"
                d="M88.2903 720.755L223.988 1227C225.125 1231.84 225.694 1234.11 225.694 1234.11C239.065 1238.09 252.72 1241.51 266.091 1244.63C266.091 1244.63 264.953 1241.22 262.392 1234.39L122.712 712.791C126.411 707.103 127.549 699.709 125.842 692.883L116.169 657.332C112.471 643.965 98.8161 636.001 85.161 639.414C71.7905 643.112 63.825 656.763 67.2388 670.415L76.9111 705.966C78.618 712.223 82.8852 717.626 88.2903 720.755Z"
                fill="#A84E08" />
            <path fill-rule="evenodd" clip-rule="evenodd"
                d="M361.676 756.875L116.17 1182.06C115.601 1183.49 114.747 1184.62 113.894 1186.05C103.368 1180.36 93.1267 1174.1 83.1699 1167.56C83.1699 1167.28 84.8768 1165 88.0061 1160.17L330.383 740.095C328.392 733.554 328.961 726.444 332.659 719.902L351.151 688.049C357.978 676.103 373.625 671.837 385.573 678.947C397.521 685.773 401.788 701.416 394.676 713.361L376.185 745.214C373.056 751.187 367.65 755.169 361.676 756.875Z"
                fill="#A84E08" />
            <path fill-rule="evenodd" clip-rule="evenodd"
                d="M494.814 943.728L6.07667 1097.88C0.671543 1099.58 -1.88878 1100.15 -1.88878 1100.15C-11.2766 1091.05 -20.6645 1081.38 -29.4834 1071.71C-29.4834 1071.71 -26.0696 1070.86 -19.2421 1068.87L483.151 910.452C485.995 904.195 491.401 899.36 498.228 897.085L533.219 885.993C546.305 881.727 560.814 889.122 564.797 902.489C569.064 915.572 561.667 930.076 548.297 934.058L513.306 945.15C507.047 947.141 500.504 946.572 494.814 943.728Z"
                fill="#A84E08" />
            <path
                d="M187.29 729C345.461 729 473.477 857.268 473.477 1015.11C473.477 1094.18 441.331 1165.57 389.556 1217.61C375.332 1231.83 359.97 1244.35 343.185 1255.15C341.478 1256.01 340.909 1256.58 340.909 1256.58C329.53 1255.72 318.151 1254.02 306.772 1251.74C307.625 1246.62 311.039 1242.07 315.591 1239.51C314.737 1239.23 313.599 1238.94 312.746 1238.66C308.194 1234.96 303.358 1232.4 297.668 1230.41C320.142 1218.75 340.625 1203.96 358.263 1186.33C402.073 1142.53 429.098 1082.23 429.098 1015.4C429.098 882.011 320.996 773.652 187.29 773.652C53.8685 773.652 -54.5186 882.011 -54.5186 1015.4C-54.5186 1019.66 -54.5187 1023.93 -54.2342 1027.91C-55.0876 1026.77 -55.6566 1025.64 -56.51 1024.78L-57.9324 1022.79L-59.9238 1018.24C-62.4841 1012.27 -66.1823 1007.15 -70.4496 1002.88L-71.0185 1002.32L-77.2771 1010.28C-84.1046 1000.04 -90.6477 989.802 -96.9062 978.994L-95.7683 972.737C-75.2857 834.8 43.6272 729 187.29 729Z"
                fill="#763400" />
            <path
                d="M187.29 747.488C335.22 747.488 454.987 867.224 454.987 1015.12C454.987 1095.89 419.142 1168.41 362.53 1217.33C343.755 1233.54 328.393 1244.92 304.496 1251.74C271.212 1246.91 238.212 1238.94 206.351 1227.85C225.98 1231.83 246.462 1230.41 265.522 1224.16C350.298 1192.3 410.608 1110.68 410.608 1015.12C410.608 891.683 310.755 791.856 187.29 791.856C63.8258 791.856 -36.0269 891.683 -36.0269 1015.12C-36.0269 1021.09 -35.7424 1026.78 -35.4579 1032.46C-32.0442 1054.65 -27.4925 1070.29 -21.8029 1079.68C-43.1389 1056.92 -62.4836 1032.18 -79.8369 1006.3C-79.268 999.758 -78.9835 992.648 -78.9835 985.253C-72.1559 923.252 -43.9924 867.793 -2.17371 825.985C46.188 777.351 113.325 747.488 187.29 747.488Z"
                fill="#DE8B16" />
            <path
                d="M207.489 994.923C202.369 989.804 194.972 986.391 187.007 986.391C179.041 986.391 171.929 989.52 166.524 994.923C161.403 1000.04 157.99 1007.44 157.99 1015.4C157.99 1023.36 161.119 1030.47 166.524 1035.88C171.645 1041 179.041 1044.41 187.007 1044.41C194.972 1044.41 202.084 1041.28 207.489 1035.88C212.61 1030.76 216.024 1023.36 216.024 1015.4C216.024 1007.15 212.894 1000.04 207.489 994.923ZM187.291 942.023C207.489 942.023 225.981 950.271 239.067 963.354C252.437 976.721 260.403 994.923 260.403 1015.12C260.403 1035.31 252.153 1053.8 239.067 1066.88C225.696 1080.25 207.489 1088.21 187.291 1088.21C167.093 1088.21 148.602 1079.96 135.516 1066.88C122.145 1053.51 114.18 1035.31 114.18 1015.12C114.18 994.923 122.43 976.437 135.516 963.354C148.602 949.987 166.809 942.023 187.291 942.023Z"
                fill="#DE8B16" />
            <path
                d="M254.427 947.712C237.073 930.363 213.462 919.84 187.005 919.84C160.548 919.84 136.936 930.363 119.583 947.712C102.23 965.061 91.7039 988.667 91.7039 1015.12C91.7039 1041.57 102.23 1065.17 119.583 1082.52C136.936 1099.87 160.548 1110.39 187.005 1110.39C213.462 1110.39 237.073 1099.87 254.427 1082.52C271.78 1065.17 282.306 1041.57 282.306 1015.12C282.59 988.951 271.78 965.061 254.427 947.712ZM187.289 875.473C225.979 875.473 260.97 891.115 286.004 916.427C311.323 941.74 326.969 976.722 326.969 1015.12C326.969 1053.8 311.323 1088.78 286.004 1113.81C260.685 1139.12 225.694 1154.76 187.289 1154.76C148.6 1154.76 113.609 1139.12 88.5746 1113.81C63.2558 1088.49 47.6094 1053.51 47.6094 1015.12C47.6094 976.437 63.2558 941.455 88.5746 916.427C113.609 891.115 148.6 875.473 187.289 875.473Z"
                fill="#DE8B16" />
            <path fill-rule="evenodd" clip-rule="evenodd"
                d="M187.007 972.453C210.334 972.453 229.394 991.508 229.394 1014.83C229.394 1038.15 210.334 1057.21 187.007 1057.21C163.679 1057.21 144.619 1038.15 144.619 1014.83C144.619 991.508 163.395 972.453 187.007 972.453Z"
                fill="#763400" />
            <path
                d="M194.401 1008C192.41 1006.01 189.85 1004.88 187.005 1004.88C184.16 1004.88 181.6 1006.01 179.608 1008C177.617 1010 176.479 1012.56 176.479 1015.4C176.479 1018.24 177.617 1020.8 179.608 1022.79C181.6 1024.78 184.16 1025.92 187.005 1025.92C189.85 1025.92 192.41 1024.78 194.401 1022.79C196.393 1020.8 197.531 1018.24 197.531 1015.4C197.531 1012.27 196.393 1009.71 194.401 1008ZM187.289 988.949C194.401 988.949 200.944 991.793 205.781 996.628C210.617 1001.46 213.462 1008 213.462 1015.11C213.462 1022.22 210.617 1028.77 205.781 1033.6C200.944 1038.44 194.401 1041.28 187.289 1041.28C180.177 1041.28 173.634 1038.44 168.798 1033.6C163.962 1028.77 161.117 1022.22 161.117 1015.11C161.117 1008 163.962 1001.46 168.798 996.628C173.35 992.078 179.893 988.949 187.289 988.949Z"
                fill="#DE8B16" />
            <path fill-rule="evenodd" clip-rule="evenodd"
                d="M710.734 1056.07C712.725 1056.07 714.148 1057.49 714.148 1059.48C714.148 1061.47 712.725 1062.9 710.734 1062.9C708.743 1062.9 707.32 1061.47 707.32 1059.48C707.32 1057.49 708.743 1056.07 710.734 1056.07Z"
                fill="white" />
            <path fill-rule="evenodd" clip-rule="evenodd"
                d="M634.779 1052.38C636.201 1052.38 637.339 1053.51 637.339 1054.93C637.339 1056.36 636.201 1057.49 634.779 1057.49C633.357 1057.49 632.219 1056.36 632.219 1054.93C632.219 1053.51 633.357 1052.38 634.779 1052.38Z"
                fill="white" />
            <path fill-rule="evenodd" clip-rule="evenodd"
                d="M543.176 978.426C544.598 978.426 545.736 979.563 545.736 980.986C545.736 982.408 544.598 983.545 543.176 983.545C541.753 983.545 540.615 982.408 540.615 980.986C540.615 979.563 541.753 978.426 543.176 978.426Z"
                fill="white" />
            <path fill-rule="evenodd" clip-rule="evenodd"
                d="M807.743 950.27C810.303 950.27 812.295 952.26 812.295 954.82C812.295 957.38 810.303 959.371 807.743 959.371C805.183 959.371 803.191 957.38 803.191 954.82C803.191 952.26 805.467 950.27 807.743 950.27Z"
                fill="white" />
            <path fill-rule="evenodd" clip-rule="evenodd"
                d="M169.084 774.223C170.222 774.223 171.36 775.36 171.36 776.498C171.36 777.636 170.222 778.773 169.084 778.773C167.947 778.773 166.809 777.636 166.809 776.498C166.809 775.36 167.662 774.223 169.084 774.223Z"
                fill="white" />
            <path fill-rule="evenodd" clip-rule="evenodd"
                d="M138.075 776.496C140.067 776.496 141.773 778.203 141.773 780.193C141.773 782.184 140.067 783.891 138.075 783.891C136.084 783.891 134.377 782.184 134.377 780.193C134.377 778.203 135.799 776.496 138.075 776.496Z"
                fill="white" />
            <path fill-rule="evenodd" clip-rule="evenodd"
                d="M10.9121 1027.34C12.9035 1027.34 14.6104 1029.05 14.6104 1031.04C14.6104 1033.03 12.9035 1034.74 10.9121 1034.74C8.92075 1034.74 7.21387 1033.03 7.21387 1031.04C7.21387 1029.05 8.63627 1027.34 10.9121 1027.34Z"
                fill="white" />
            <path fill-rule="evenodd" clip-rule="evenodd"
                d="M615.435 451.422C617.995 451.422 619.986 453.413 619.986 455.972C619.986 458.532 617.995 460.523 615.435 460.523C612.874 460.523 610.883 458.532 610.883 455.972C610.883 453.697 612.874 451.422 615.435 451.422Z"
                fill="white" />
        </g>
        <path fill-rule="evenodd" clip-rule="evenodd"
            d="M767.266 378.379C720.888 391.592 698 398.198 698 398.198C1045.53 399.399 1219 400 1219 400C1155.15 388.589 1123.23 383.183 1123.23 383.183C1120.22 362.163 1105.77 344.745 1085.89 338.139C1066.01 331.532 1043.73 336.938 1029.27 351.953C1030.48 321.322 1014.82 291.893 987.712 276.278C960.608 260.662 927.481 261.263 901.582 278.08C875.682 294.896 860.624 324.325 863.636 355.556C852.192 335.737 829.304 324.926 807.018 330.331C784.733 336.337 768.471 355.556 767.266 378.379Z"
            fill="white" />
    </g>
    <defs>
        <clipPath id="clip0_665_53">
            <rect width="1120" height="1337" fill="white" transform="translate(-174 -79)" />
        </clipPath>
    </defs>
</svg>