<svg xmlns="http://www.w3.org/2000/svg" viewBox="0 0 13.33 16">
    <path fill="#001d65"
        d="M392.82,171.32c.08-.08.36-.41.63-.68a28.44,28.44,0,0,1,7.73-5.37,6,6,0,0,1,1.57-.45,2.64,2.64,0,0,1,1.19.29,2.55,2.55,0,0,1,1.06,1.21,11.6,11.6,0,0,1,.34,1.42,31.52,31.52,0,0,1,.33,5.07,36.74,36.74,0,0,1-.29,4.92,12.21,12.21,0,0,1-.45,1.77,2.39,2.39,0,0,1-2.11,1.32h-.07a6.46,6.46,0,0,1-1.76-.54,29,29,0,0,1-7.56-5.29,6.47,6.47,0,0,1-.64-.74,2.34,2.34,0,0,1-.46-1.42A2.48,2.48,0,0,1,392.82,171.32Z"
        transform="translate(-392.33 -164.82)" />
</svg>