<svg id="Layer_1" data-name="Layer 1" xmlns="http://www.w3.org/2000/svg" viewBox="0 0 23 21">
    <defs>
        <style>
            .cls-1 {
                fill: #fff;
                fill-rule: evenodd;
            }
        </style>
    </defs>
    <path class="cls-1"
        d="M344.13-234a1.25,1.25,0,0,0-.19,0h-.09a1.82,1.82,0,0,0-.65.12h0l-19.49,7.7h0a1.79,1.79,0,0,0,.29,3.41h0l4.28.87v6.32h0a1.71,1.71,0,0,0,.33,1,1.75,1.75,0,0,0,.8.63,1.9,1.9,0,0,0,1,.09,2,2,0,0,0,.9-.46l3.09-2.92,4.29,3.8h0a1.7,1.7,0,0,0,.79.4,1.72,1.72,0,0,0,.9,0,1.78,1.78,0,0,0,.75-.49,1.82,1.82,0,0,0,.43-.81h0l4-17.44h0a1.8,1.8,0,0,0-.05-.95,1.79,1.79,0,0,0-.53-.79A1.69,1.69,0,0,0,344.13-234ZM333-218.51l-2.91-2.57v5.31Zm6.79,3.55-8.29-7.34,12.12-9.47Zm-9.77-8.53,8.38-6.55-13.8,5.46L330-223.5Z"
        transform="translate(-322.59 234.04)" >
</svg>