<svg xmlns="http://www.w3.org/2000/svg" viewBox="0 0 238.76 15.86">
    <path style="fill: #001d65; opacity: 0.2;"
        d="M650.86,608.61c-7.31,0-14.24-3.62-20.24-10.53-6,6.91-12.94,10.53-20.24,10.53s-14.23-3.62-20.24-10.53c-6,6.91-12.93,10.53-20.23,10.53s-14.24-3.62-20.24-10.53c-6,6.88-12.93,10.5-20.24,10.5S515.2,605,509.2,598.05c-6,6.91-12.94,10.53-20.24,10.53s-14.23-3.62-20.24-10.53c-4.33,5-9.12,8.23-14.3,9.67a2.3,2.3,0,0,1-2.82-1.17,1.77,1.77,0,0,1,1.41-2.33c4.89-1.38,9.67-5,13.86-10.47a1,1,0,0,1,.3-.31,2.49,2.49,0,0,1,1.92-.52,2.17,2.17,0,0,1,1.63,1c5.45,7.13,11.79,11,18.24,11s12.79-3.83,18.35-11.11a2.18,2.18,0,0,1,1.85-1,2.32,2.32,0,0,1,2,.92c5.53,7.27,11.9,11.11,18.35,11.11s12.79-3.84,18.35-11.11a2.38,2.38,0,0,1,1.63-.86,2.48,2.48,0,0,1,1.81.52,2.18,2.18,0,0,1,.34.34c5.52,7.27,11.86,11.11,18.34,11.11s12.83-3.84,18.35-11.11a2.61,2.61,0,0,1,3.78,0c5.52,7.27,11.9,11.11,18.35,11.11s12.79-3.84,18.35-11.11a2.21,2.21,0,0,1,2-1,2.36,2.36,0,0,1,2,1.08c5.45,7.12,11.79,11,18.24,11s12.79-3.84,18.35-11.11a2.13,2.13,0,0,1,1.59-.93,2.45,2.45,0,0,1,1.89.62,2.18,2.18,0,0,1,.3.31c4.63,6.11,10,9.85,15.42,10.84a1.89,1.89,0,0,1,1.7,2.21,2.28,2.28,0,0,1-2.67,1.41c-5.85-1.07-11.49-4.58-16.38-10.16C665.13,605,658.16,608.61,650.86,608.61Z"
        transform="translate(-451.47 -592.75)" />
</svg>