<svg id="Layer_1" data-name="Layer 1" xmlns="http://www.w3.org/2000/svg" viewBox="0 0 16 13.33">
    <defs>
        <style>
            .cls-1 {
                fill: #f90;
            }
        </style>
    </defs>
    <path class="cls-1"
        d="M348,272c-.08-.08-.41-.36-.68-.62a29.21,29.21,0,0,1-5.37-7.73,6.55,6.55,0,0,1-.44-1.57,2.36,2.36,0,0,1,1.49-2.26,13.88,13.88,0,0,1,1.42-.34,31.86,31.86,0,0,1,5.08-.32,37.23,37.23,0,0,1,4.92.28,11.6,11.6,0,0,1,1.77.46,2.38,2.38,0,0,1,1.32,2.1v.08a6.5,6.5,0,0,1-.55,1.76,28.83,28.83,0,0,1-5.29,7.55,8.06,8.06,0,0,1-.73.65,2.42,2.42,0,0,1-1.42.45A2.51,2.51,0,0,1,348,272Z"
        transform="translate(-341.47 -259.2)" />
</svg>