<svg width="158" height="11" viewBox="0 0 158 11" fill="none" xmlns="http://www.w3.org/2000/svg">
    <path
        d="M131.489 11.0009C126.674 11.0009 122.103 8.6111 118.143 4.05437C114.183 8.6111 109.613 11.0009 104.797 11.0009C99.9819 11.0009 95.411 8.6111 91.4511 4.05437C87.4913 8.6111 82.9204 11.0009 78.105 11.0009C73.2897 11.0009 68.7188 8.6111 64.759 4.05437C60.7991 8.59085 56.2282 10.9806 51.4129 10.9806C46.5975 10.9806 42.0266 8.59085 38.0668 4.03412C34.107 8.59085 29.5361 10.9806 24.7207 10.9806C19.9054 10.9806 15.3345 8.59085 11.3746 4.03412C8.51477 7.31496 5.36158 9.46169 1.93951 10.4135C1.15732 10.6363 0.326246 10.292 0.0818125 9.64396C-0.187065 9.01614 0.228473 8.30732 1.01066 8.1048C4.23719 7.19345 7.39038 4.82395 10.1525 1.19882C10.2014 1.11781 10.2747 1.05705 10.348 0.996296C10.6902 0.712766 11.1547 0.591252 11.6191 0.652008C12.0835 0.712765 12.499 0.955791 12.6946 1.30008C16.2878 5.99857 20.4676 8.53009 24.7207 8.53009C28.9739 8.53009 33.1537 5.99857 36.8202 1.19882C37.0646 0.814026 37.5046 0.591253 38.0424 0.571001C38.5557 0.530497 39.0445 0.814027 39.3379 1.17857C42.9799 5.97832 47.1842 8.50984 51.4373 8.50984C55.6905 8.50984 59.8703 5.97832 63.5368 1.17857C63.7812 0.874783 64.1723 0.652009 64.6123 0.611505C65.0523 0.571 65.4923 0.692513 65.81 0.95579C65.8834 1.01655 65.9567 1.09756 66.03 1.17857C69.6721 5.97832 73.8519 8.50984 78.1295 8.50984C82.3826 8.50984 86.5869 5.97832 90.229 1.17857C90.7667 0.46974 92.1844 0.46974 92.7222 1.17857C96.3643 5.97832 100.569 8.50984 104.822 8.50984C109.075 8.50984 113.255 5.97832 116.921 1.17857C117.166 0.773522 117.654 0.550748 118.217 0.550748C118.779 0.550748 119.243 0.85453 119.512 1.25957C123.105 5.95807 127.285 8.48959 131.538 8.48959C135.791 8.48959 139.971 5.95807 143.638 1.15831C143.858 0.814025 144.224 0.611504 144.689 0.550748C145.153 0.489991 145.618 0.67226 145.935 0.95579C146.009 1.01655 146.082 1.09756 146.131 1.15831C149.186 5.18849 152.706 7.65925 156.299 8.30732C157.082 8.44908 157.595 9.09715 157.424 9.76547C157.253 10.4135 156.47 10.8388 155.664 10.6971C151.802 9.98825 148.086 7.6795 144.86 3.99361C140.9 8.59085 136.305 11.0009 131.489 11.0009Z"
        fill="white" />
</svg>