<svg id="Layer_1" data-name="Layer 1" xmlns="http://www.w3.org/2000/svg" xmlns:xlink="http://www.w3.org/1999/xlink"
    viewBox="0 0 20.78 20.78">
    <defs>
        <style>
            .cls-1 {
                fill: none;
            }

            .cls-2 {
                clip-path: url(#clip-path);
            }

            .cls-3 {
                fill: #fff;
            }
        </style>
        <clipPath id="clip-path" transform="translate(-362.68 233.93)">
            <rect class="cls-1" x="362.68" y="-233.93" width="20.78" height="20.78" />
        </clipPath>
    </defs>
    <g class="cls-2">
        <path class="cls-3"
            d="M378.05-222s-1.55-.77-1.82-.86a.9.9,0,0,0-.36-.08.6.6,0,0,0-.29.08.66.66,0,0,0-.22.22c-.15.22-.6.76-.75.92a.08.08,0,0,1-.06,0l-.31-.12a7.94,7.94,0,0,1-3-2.69l0-.06.09-.1c.08-.08.17-.19.26-.3l.12-.14a2,2,0,0,0,.25-.39l0-.07a.76.76,0,0,0,.08-.33.79.79,0,0,0-.1-.34l-.74-1.77c-.16-.4-.38-.58-.68-.58h-.12a3.51,3.51,0,0,0-1.26.33,2.59,2.59,0,0,0-.76,1,2.63,2.63,0,0,0-.22,1.24,4.89,4.89,0,0,0,1.05,2.66l.05.06a9.81,9.81,0,0,0,4.23,3.68,6.86,6.86,0,0,0,2.56.65l.41,0h.08a2.65,2.65,0,0,0,1.08-.45,2.67,2.67,0,0,0,.79-.88,2.11,2.11,0,0,0,.12-1.38A1,1,0,0,0,378.05-222Z"
            transform="translate(-362.68 233.93)" />
        <path class="cls-3"
            d="M373.25-233.93a10.23,10.23,0,0,0-7.2,3,10.18,10.18,0,0,0-3,7.18,9.93,9.93,0,0,0,1.4,5.12l-1.76,5.17a.38.38,0,0,0,0,.15.35.35,0,0,0,.08.13.24.24,0,0,0,.12.07H363l5.39-1.72a10.21,10.21,0,0,0,5.05,1.21,10.19,10.19,0,0,0,5-1.43,10.32,10.32,0,0,0,3.65-3.69,10.37,10.37,0,0,0,1.36-5,10.21,10.21,0,0,0-3-7.17A10.16,10.16,0,0,0,373.25-233.93Zm0,18.15a8.09,8.09,0,0,1-4.45-1.33l-.11,0h-.12l-2.7.86.88-2.57a.57.57,0,0,0,0-.13.61.61,0,0,0-.05-.12,7.94,7.94,0,0,1-1.54-4.7,8.12,8.12,0,0,1,1.33-4.51,8.06,8.06,0,0,1,3.61-3,8,8,0,0,1,4.68-.49,8,8,0,0,1,4.15,2.2,8,8,0,0,1,2.24,4.13,8.14,8.14,0,0,1-.45,4.68,8,8,0,0,1-3,3.64,8.1,8.1,0,0,1-4.5,1.37Z"
            transform="translate(-362.68 233.93)" />
    </g>
</svg>